<?xml version="1.0" encoding="UTF-8"?>
<svg xmlns="http://www.w3.org/2000/svg" xmlns:xlink="http://www.w3.org/1999/xlink" width="80px" height="80px" viewBox="0 0 80 80" version="1.1">
<g id="surface1">
<path style=" stroke:none;fill-rule:nonzero;fill:rgb(0%,0%,0%);fill-opacity:1;" d="M 0 7.75 C 26.398438 7.75 52.800781 7.75 80 7.75 C 80 29.035156 80 50.320312 80 72.25 C 53.601562 72.25 27.199219 72.25 0 72.25 C 0 50.964844 0 29.679688 0 7.75 Z M 3.4375 11.5625 C 3.425781 11.730469 3.421875 11.894531 3.421875 12.066406 C 3.421875 12.117188 3.421875 12.171875 3.421875 12.226562 C 3.421875 12.40625 3.421875 12.585938 3.421875 12.765625 C 3.421875 12.894531 3.421875 13.023438 3.421875 13.152344 C 3.421875 13.507812 3.421875 13.863281 3.421875 14.21875 C 3.421875 14.601562 3.421875 14.984375 3.421875 15.367188 C 3.421875 16.078125 3.421875 16.785156 3.421875 17.492188 C 3.421875 18.148438 3.421875 18.800781 3.421875 19.457031 C 3.421875 19.5 3.421875 19.542969 3.421875 19.585938 C 3.421875 19.761719 3.421875 19.941406 3.421875 20.117188 C 3.421875 21.765625 3.421875 23.417969 3.421875 25.070312 C 3.421875 26.539062 3.421875 28.007812 3.421875 29.476562 C 3.421875 31.125 3.421875 32.773438 3.421875 34.421875 C 3.421875 34.597656 3.421875 34.773438 3.421875 34.949219 C 3.421875 34.992188 3.421875 35.035156 3.421875 35.078125 C 3.421875 35.734375 3.421875 36.386719 3.421875 37.039062 C 3.421875 37.785156 3.421875 38.527344 3.421875 39.269531 C 3.421875 39.648438 3.421875 40.03125 3.421875 40.410156 C 3.421875 40.757812 3.421875 41.105469 3.421875 41.449219 C 3.421875 41.578125 3.421875 41.703125 3.421875 41.828125 C 3.421875 42 3.421875 42.167969 3.421875 42.339844 C 3.421875 42.390625 3.421875 42.4375 3.421875 42.488281 C 3.421875 42.765625 3.460938 42.992188 3.5625 43.25 C 3.882812 42.980469 4.183594 42.699219 4.476562 42.402344 C 4.515625 42.363281 4.558594 42.320312 4.597656 42.28125 C 4.675781 42.203125 4.753906 42.125 4.832031 42.042969 C 4.925781 41.949219 5.023438 41.855469 5.117188 41.761719 C 5.253906 41.636719 5.253906 41.636719 5.316406 41.488281 C 5.394531 41.339844 5.476562 41.324219 5.625 41.25 C 5.722656 41.171875 5.722656 41.171875 5.8125 41.078125 C 5.847656 41.042969 5.882812 41.007812 5.921875 40.972656 C 5.957031 40.933594 5.992188 40.898438 6.03125 40.859375 C 6.070312 40.820312 6.109375 40.78125 6.148438 40.742188 C 6.230469 40.664062 6.3125 40.582031 6.390625 40.5 C 6.515625 40.375 6.640625 40.25 6.765625 40.125 C 6.84375 40.046875 6.921875 39.96875 7 39.890625 C 7.039062 39.851562 7.074219 39.816406 7.113281 39.777344 C 7.308594 39.609375 7.308594 39.609375 7.375 39.375 C 7.425781 39.351562 7.425781 39.351562 7.480469 39.332031 C 7.660156 39.230469 7.78125 39.105469 7.925781 38.960938 C 7.984375 38.902344 8.039062 38.847656 8.097656 38.789062 C 8.15625 38.726562 8.21875 38.667969 8.277344 38.605469 C 8.335938 38.546875 8.394531 38.484375 8.457031 38.425781 C 8.566406 38.3125 8.675781 38.203125 8.785156 38.089844 C 8.890625 37.984375 9 37.875 9.109375 37.769531 C 9.253906 37.636719 9.253906 37.636719 9.316406 37.488281 C 9.375 37.375 9.375 37.375 9.488281 37.320312 C 9.648438 37.238281 9.75 37.140625 9.878906 37.011719 C 9.925781 36.960938 9.976562 36.914062 10.027344 36.863281 C 10.078125 36.808594 10.132812 36.757812 10.183594 36.703125 C 10.238281 36.648438 10.292969 36.59375 10.351562 36.535156 C 10.496094 36.390625 10.640625 36.246094 10.78125 36.101562 C 10.929688 35.953125 11.074219 35.808594 11.222656 35.660156 C 11.4375 35.445312 11.648438 35.230469 11.863281 35.011719 C 12.355469 34.515625 12.355469 34.515625 12.597656 34.28125 C 12.75 34.128906 12.75 34.128906 12.871094 33.96875 C 12.976562 33.839844 13.074219 33.75 13.203125 33.644531 C 13.261719 33.597656 13.316406 33.550781 13.375 33.5 C 13.375 33.457031 13.375 33.417969 13.375 33.375 C 13.410156 33.359375 13.445312 33.347656 13.480469 33.332031 C 13.664062 33.226562 13.789062 33.089844 13.9375 32.9375 C 14.050781 32.824219 14.167969 32.710938 14.28125 32.597656 C 14.378906 32.5 14.476562 32.402344 14.574219 32.304688 C 14.644531 32.238281 14.710938 32.171875 14.777344 32.105469 C 14.875 32.011719 14.972656 31.914062 15.070312 31.816406 C 15.128906 31.757812 15.1875 31.699219 15.246094 31.640625 C 15.390625 31.515625 15.390625 31.515625 15.375 31.375 C 15.410156 31.359375 15.445312 31.347656 15.480469 31.332031 C 15.722656 31.195312 15.890625 31 16.058594 30.78125 C 16.210938 30.597656 16.378906 30.460938 16.5625 30.3125 C 16.722656 30.15625 16.875 30.003906 17.019531 29.835938 C 17.292969 29.59375 17.585938 29.492188 17.949219 29.46875 C 18.1875 29.5 18.1875 29.5 18.359375 29.621094 C 18.507812 29.820312 18.589844 30.011719 18.679688 30.242188 C 18.75 30.394531 18.75 30.394531 18.933594 30.527344 C 19.242188 30.785156 19.390625 31.140625 19.496094 31.523438 C 19.585938 31.75 19.734375 31.808594 19.9375 31.9375 C 20.042969 32.082031 20.113281 32.222656 20.183594 32.390625 C 20.203125 32.441406 20.222656 32.492188 20.246094 32.542969 C 20.265625 32.589844 20.285156 32.640625 20.300781 32.6875 C 20.390625 32.839844 20.46875 32.863281 20.625 32.9375 C 20.839844 33.183594 20.949219 33.453125 21.023438 33.765625 C 21.0625 33.925781 21.0625 33.925781 21.125 34.0625 C 21.230469 34.117188 21.335938 34.175781 21.445312 34.222656 C 21.675781 34.398438 21.773438 34.710938 21.890625 34.972656 C 22.003906 35.195312 22.128906 35.332031 22.3125 35.5 C 22.480469 35.714844 22.574219 35.902344 22.644531 36.160156 C 22.710938 36.378906 22.765625 36.472656 22.964844 36.589844 C 23.226562 36.75 23.28125 36.945312 23.378906 37.226562 C 23.460938 37.429688 23.589844 37.539062 23.75 37.6875 C 23.96875 37.96875 24.125 38.230469 24.226562 38.574219 C 24.332031 38.859375 24.46875 38.960938 24.734375 39.105469 C 25.058594 39.246094 25.285156 39.273438 25.625 39.1875 C 26.28125 39.082031 26.9375 39.03125 27.601562 38.988281 C 28.363281 38.953125 28.363281 38.953125 29.046875 38.660156 C 29.777344 38.171875 30.902344 38.234375 31.75 38.1875 C 31.800781 38.183594 31.851562 38.179688 31.902344 38.179688 C 32.375 38.152344 32.804688 38.132812 33.1875 38.4375 C 33.292969 38.539062 33.398438 38.644531 33.5 38.75 C 33.5625 38.8125 33.621094 38.871094 33.683594 38.933594 C 33.8125 39.0625 33.9375 39.1875 34.066406 39.316406 C 34.113281 39.363281 34.113281 39.363281 34.160156 39.410156 C 34.246094 39.496094 34.328125 39.582031 34.414062 39.667969 C 34.539062 39.792969 34.667969 39.90625 34.804688 40.019531 C 35.027344 40.210938 35.210938 40.417969 35.402344 40.640625 C 35.503906 40.757812 35.503906 40.757812 35.65625 40.875 C 35.839844 41.023438 35.984375 41.1875 36.132812 41.367188 C 36.269531 41.523438 36.414062 41.667969 36.5625 41.8125 C 37.125 42.375 37.6875 42.9375 38.25 43.5 C 38.328125 43.578125 38.328125 43.578125 38.40625 43.65625 C 38.511719 43.761719 38.617188 43.867188 38.71875 43.976562 C 38.769531 44.027344 38.820312 44.082031 38.875 44.136719 C 38.925781 44.191406 38.976562 44.246094 39.03125 44.300781 C 39.296875 44.535156 39.53125 44.578125 39.878906 44.578125 C 39.957031 44.578125 40.03125 44.578125 40.109375 44.578125 C 40.195312 44.578125 40.277344 44.578125 40.363281 44.578125 C 40.453125 44.578125 40.542969 44.578125 40.628906 44.582031 C 40.820312 44.582031 41.011719 44.582031 41.203125 44.582031 C 41.507812 44.582031 41.808594 44.582031 42.113281 44.585938 C 42.863281 44.585938 43.617188 44.589844 44.371094 44.589844 C 44.953125 44.589844 45.539062 44.59375 46.125 44.59375 C 46.425781 44.597656 46.726562 44.597656 47.027344 44.597656 C 47.214844 44.597656 47.402344 44.597656 47.589844 44.597656 C 47.675781 44.601562 47.761719 44.601562 47.847656 44.597656 C 49 44.597656 49 44.597656 49.421875 44.960938 C 49.46875 45.015625 49.515625 45.070312 49.5625 45.125 C 49.765625 45.3125 49.9375 45.441406 50.191406 45.554688 C 50.386719 45.644531 50.472656 45.722656 50.582031 45.90625 C 50.75 46.175781 50.984375 46.230469 51.28125 46.3125 C 51.460938 46.386719 51.515625 46.464844 51.625 46.625 C 51.667969 46.625 51.707031 46.625 51.75 46.625 C 51.769531 46.6875 51.792969 46.75 51.8125 46.8125 C 51.953125 46.886719 52.089844 46.953125 52.234375 47.015625 C 52.71875 47.242188 52.71875 47.242188 52.863281 47.480469 C 53.027344 47.730469 53.160156 47.777344 53.433594 47.882812 C 53.601562 47.953125 53.699219 48.042969 53.8125 48.1875 C 53.835938 48.25 53.835938 48.25 53.855469 48.308594 C 53.976562 48.5 54.121094 48.527344 54.332031 48.597656 C 55 48.832031 55 48.832031 55.148438 49.09375 C 55.316406 49.355469 55.597656 49.4375 55.875 49.566406 C 56.097656 49.707031 56.136719 49.832031 56.25 50.0625 C 56.417969 50.160156 56.417969 50.160156 56.609375 50.214844 C 56.859375 50.308594 57.03125 50.378906 57.207031 50.582031 C 57.4375 50.847656 57.726562 50.976562 58.042969 51.125 C 58.332031 51.265625 58.449219 51.410156 58.625 51.6875 C 58.777344 51.796875 58.777344 51.796875 58.945312 51.867188 C 59 51.894531 59.054688 51.917969 59.109375 51.945312 C 59.246094 52.007812 59.246094 52.007812 59.375 52 C 59.390625 52.058594 59.40625 52.117188 59.421875 52.179688 C 59.480469 52.375 59.480469 52.375 59.605469 52.457031 C 60.015625 52.578125 60.433594 52.570312 60.855469 52.570312 C 60.921875 52.570312 60.988281 52.570312 61.058594 52.570312 C 61.28125 52.570312 61.503906 52.570312 61.726562 52.570312 C 61.886719 52.570312 62.046875 52.570312 62.207031 52.570312 C 62.597656 52.574219 62.984375 52.574219 63.375 52.574219 C 63.691406 52.574219 64.007812 52.574219 64.320312 52.574219 C 65.21875 52.574219 66.113281 52.574219 67.011719 52.574219 C 67.058594 52.574219 67.105469 52.574219 67.15625 52.574219 C 67.203125 52.574219 67.253906 52.574219 67.304688 52.574219 C 68.085938 52.574219 68.871094 52.574219 69.65625 52.574219 C 70.460938 52.578125 71.265625 52.578125 72.070312 52.578125 C 72.523438 52.578125 72.976562 52.578125 73.429688 52.578125 C 73.851562 52.578125 74.277344 52.578125 74.703125 52.578125 C 74.859375 52.578125 75.015625 52.578125 75.171875 52.578125 C 75.382812 52.578125 75.597656 52.578125 75.808594 52.578125 C 75.902344 52.578125 75.902344 52.578125 76 52.578125 C 76.054688 52.578125 76.109375 52.578125 76.167969 52.578125 C 76.21875 52.578125 76.269531 52.578125 76.316406 52.578125 C 76.453125 52.574219 76.453125 52.574219 76.5625 52.4375 C 76.582031 52.308594 76.582031 52.308594 76.578125 52.160156 C 76.578125 52.101562 76.578125 52.042969 76.578125 51.980469 C 76.578125 51.917969 76.578125 51.851562 76.578125 51.785156 C 76.578125 51.714844 76.578125 51.644531 76.578125 51.574219 C 76.578125 51.339844 76.578125 51.105469 76.578125 50.871094 C 76.578125 50.703125 76.578125 50.535156 76.578125 50.367188 C 76.578125 49.996094 76.578125 49.628906 76.578125 49.261719 C 76.578125 48.714844 76.578125 48.167969 76.578125 47.621094 C 76.578125 46.640625 76.578125 45.664062 76.578125 44.6875 C 76.578125 43.832031 76.578125 42.976562 76.578125 42.121094 C 76.578125 42.066406 76.578125 42.007812 76.578125 41.949219 C 76.578125 41.722656 76.578125 41.492188 76.578125 41.261719 C 76.578125 39.101562 76.578125 36.945312 76.578125 34.785156 C 76.578125 32.867188 76.578125 30.949219 76.578125 29.027344 C 76.578125 26.875 76.578125 24.71875 76.578125 22.566406 C 76.578125 22.335938 76.578125 22.105469 76.578125 21.878906 C 76.578125 21.820312 76.578125 21.765625 76.578125 21.707031 C 76.578125 20.851562 76.578125 19.996094 76.578125 19.140625 C 76.578125 18.171875 76.578125 17.199219 76.578125 16.226562 C 76.578125 15.683594 76.578125 15.136719 76.578125 14.59375 C 76.578125 14.230469 76.578125 13.867188 76.578125 13.503906 C 76.578125 13.296875 76.578125 13.089844 76.578125 12.882812 C 76.578125 12.660156 76.578125 12.4375 76.578125 12.214844 C 76.578125 12.152344 76.578125 12.085938 76.578125 12.019531 C 76.578125 11.929688 76.578125 11.929688 76.578125 11.839844 C 76.578125 11.789062 76.578125 11.738281 76.578125 11.6875 C 76.574219 11.546875 76.574219 11.546875 76.4375 11.4375 C 76.273438 11.425781 76.117188 11.421875 75.953125 11.421875 C 75.902344 11.421875 75.851562 11.421875 75.800781 11.421875 C 75.628906 11.421875 75.457031 11.421875 75.285156 11.421875 C 75.160156 11.421875 75.035156 11.421875 74.910156 11.421875 C 74.566406 11.421875 74.222656 11.421875 73.875 11.421875 C 73.503906 11.421875 73.128906 11.421875 72.753906 11.421875 C 72.097656 11.421875 71.441406 11.421875 70.785156 11.421875 C 70.082031 11.421875 69.375 11.421875 68.671875 11.421875 C 68.605469 11.421875 68.605469 11.421875 68.535156 11.421875 C 68.355469 11.421875 68.175781 11.421875 67.992188 11.421875 C 66.308594 11.421875 64.621094 11.421875 62.933594 11.421875 C 62.882812 11.421875 62.832031 11.421875 62.78125 11.421875 C 62.730469 11.421875 62.679688 11.421875 62.628906 11.421875 C 61.101562 11.421875 59.578125 11.421875 58.054688 11.421875 C 57.949219 11.421875 57.847656 11.421875 57.746094 11.421875 C 57.335938 11.421875 56.925781 11.421875 56.515625 11.421875 C 55.371094 11.421875 54.222656 11.421875 53.078125 11.421875 C 53.027344 11.421875 52.972656 11.421875 52.921875 11.421875 C 51.257812 11.421875 49.59375 11.421875 47.929688 11.421875 C 47.847656 11.421875 47.847656 11.421875 47.765625 11.421875 C 46.886719 11.421875 46.011719 11.421875 45.132812 11.421875 C 41.65625 11.421875 38.179688 11.421875 34.699219 11.421875 C 33.824219 11.421875 32.949219 11.421875 32.070312 11.421875 C 32.015625 11.421875 31.964844 11.421875 31.90625 11.421875 C 30.246094 11.421875 28.582031 11.421875 26.921875 11.421875 C 26.871094 11.421875 26.816406 11.421875 26.761719 11.421875 C 25.617188 11.421875 24.472656 11.421875 23.328125 11.421875 C 22.917969 11.421875 22.511719 11.421875 22.101562 11.421875 C 22 11.421875 21.894531 11.421875 21.792969 11.421875 C 20.269531 11.421875 18.746094 11.421875 17.21875 11.421875 C 17.144531 11.421875 17.144531 11.421875 17.066406 11.421875 C 17.019531 11.421875 16.96875 11.421875 16.917969 11.421875 C 15.234375 11.421875 13.550781 11.421875 11.871094 11.421875 C 11.6875 11.421875 11.507812 11.421875 11.328125 11.421875 C 11.261719 11.421875 11.261719 11.421875 11.195312 11.421875 C 10.492188 11.421875 9.789062 11.421875 9.085938 11.421875 C 8.394531 11.421875 7.707031 11.421875 7.015625 11.421875 C 6.644531 11.421875 6.277344 11.421875 5.90625 11.421875 C 5.570312 11.421875 5.234375 11.421875 4.898438 11.421875 C 4.777344 11.421875 4.65625 11.421875 4.535156 11.421875 C 4.371094 11.421875 4.207031 11.421875 4.046875 11.421875 C 3.996094 11.421875 3.949219 11.421875 3.902344 11.421875 C 3.640625 11.414062 3.640625 11.414062 3.4375 11.5625 Z M 16.75 35.5625 C 16.664062 35.664062 16.578125 35.769531 16.5 35.875 C 16.398438 35.980469 16.292969 36.085938 16.1875 36.1875 C 16.136719 36.242188 16.085938 36.292969 16.03125 36.347656 C 15.875 36.5 15.875 36.5 15.71875 36.621094 C 15.535156 36.773438 15.398438 36.941406 15.25 37.125 C 15.148438 37.230469 15.042969 37.335938 14.9375 37.4375 C 14.886719 37.492188 14.835938 37.542969 14.78125 37.597656 C 14.632812 37.742188 14.476562 37.871094 14.3125 38 C 14.144531 38.160156 13.992188 38.320312 13.84375 38.5 C 13.695312 38.679688 13.539062 38.839844 13.375 39 C 13.324219 39.050781 13.273438 39.101562 13.222656 39.15625 C 13.050781 39.324219 12.871094 39.472656 12.6875 39.625 C 12.519531 39.785156 12.367188 39.945312 12.21875 40.125 C 12.070312 40.304688 11.914062 40.464844 11.75 40.625 C 11.699219 40.679688 11.648438 40.730469 11.59375 40.785156 C 11.4375 40.9375 11.4375 40.9375 11.277344 41.0625 C 11.117188 41.195312 11.003906 41.335938 10.875 41.5 C 10.773438 41.605469 10.667969 41.710938 10.5625 41.8125 C 10.484375 41.890625 10.484375 41.890625 10.40625 41.972656 C 10.25 42.125 10.25 42.125 10.089844 42.25 C 9.929688 42.382812 9.816406 42.523438 9.6875 42.6875 C 9.585938 42.792969 9.480469 42.898438 9.375 43 C 9.324219 43.050781 9.273438 43.101562 9.222656 43.15625 C 9.050781 43.324219 8.871094 43.472656 8.6875 43.625 C 8.53125 43.773438 8.386719 43.925781 8.25 44.09375 C 8.070312 44.316406 7.878906 44.511719 7.652344 44.6875 C 7.492188 44.820312 7.378906 44.960938 7.25 45.125 C 7.148438 45.230469 7.042969 45.335938 6.9375 45.4375 C 6.832031 45.542969 6.730469 45.644531 6.625 45.75 C 6.550781 45.824219 6.476562 45.898438 6.402344 45.976562 C 6.339844 46.035156 6.339844 46.035156 6.28125 46.09375 C 6.15625 46.21875 6.035156 46.339844 5.914062 46.460938 C 5.855469 46.519531 5.855469 46.519531 5.796875 46.578125 C 5.699219 46.675781 5.605469 46.769531 5.511719 46.863281 C 5.414062 46.960938 5.316406 47.0625 5.21875 47.160156 C 5.0625 47.3125 5.0625 47.3125 4.902344 47.4375 C 4.742188 47.570312 4.628906 47.710938 4.5 47.875 C 4.304688 48.082031 4.097656 48.257812 3.875 48.4375 C 3.585938 48.695312 3.453125 48.890625 3.425781 49.285156 C 3.421875 49.492188 3.421875 49.695312 3.421875 49.902344 C 3.421875 49.980469 3.421875 50.0625 3.421875 50.140625 C 3.421875 50.359375 3.421875 50.582031 3.421875 50.800781 C 3.421875 51.035156 3.421875 51.273438 3.421875 51.507812 C 3.421875 51.972656 3.421875 52.433594 3.421875 52.898438 C 3.421875 53.273438 3.421875 53.648438 3.421875 54.027344 C 3.421875 54.078125 3.421875 54.132812 3.421875 54.1875 C 3.421875 54.296875 3.421875 54.40625 3.421875 54.515625 C 3.421875 55.535156 3.421875 56.550781 3.421875 57.570312 C 3.421875 58.445312 3.421875 59.324219 3.421875 60.199219 C 3.421875 61.214844 3.421875 62.230469 3.421875 63.246094 C 3.421875 63.355469 3.421875 63.460938 3.421875 63.570312 C 3.421875 63.625 3.421875 63.675781 3.421875 63.730469 C 3.421875 64.105469 3.421875 64.484375 3.421875 64.859375 C 3.421875 65.316406 3.421875 65.773438 3.421875 66.230469 C 3.421875 66.464844 3.421875 66.699219 3.421875 66.933594 C 3.421875 67.1875 3.421875 67.4375 3.421875 67.691406 C 3.421875 67.765625 3.421875 67.839844 3.421875 67.917969 C 3.421875 67.984375 3.421875 68.050781 3.421875 68.121094 C 3.421875 68.179688 3.421875 68.238281 3.421875 68.296875 C 3.425781 68.449219 3.425781 68.449219 3.5625 68.5625 C 3.726562 68.574219 3.882812 68.578125 4.046875 68.578125 C 4.097656 68.578125 4.148438 68.578125 4.199219 68.578125 C 4.371094 68.578125 4.542969 68.578125 4.714844 68.578125 C 4.839844 68.578125 4.964844 68.578125 5.089844 68.578125 C 5.433594 68.578125 5.777344 68.578125 6.125 68.578125 C 6.496094 68.578125 6.871094 68.578125 7.246094 68.578125 C 7.902344 68.578125 8.558594 68.578125 9.214844 68.578125 C 9.917969 68.578125 10.625 68.578125 11.328125 68.578125 C 11.394531 68.578125 11.394531 68.578125 11.464844 68.578125 C 11.644531 68.578125 11.824219 68.578125 12.007812 68.578125 C 13.691406 68.578125 15.378906 68.578125 17.066406 68.578125 C 17.117188 68.578125 17.167969 68.578125 17.21875 68.578125 C 17.269531 68.578125 17.320312 68.578125 17.371094 68.578125 C 18.898438 68.578125 20.421875 68.578125 21.945312 68.578125 C 22.050781 68.578125 22.152344 68.578125 22.253906 68.578125 C 22.664062 68.578125 23.074219 68.578125 23.484375 68.578125 C 24.628906 68.578125 25.777344 68.578125 26.921875 68.578125 C 27 68.578125 27 68.578125 27.078125 68.578125 C 28.742188 68.578125 30.40625 68.578125 32.070312 68.578125 C 32.152344 68.578125 32.152344 68.578125 32.234375 68.578125 C 33.113281 68.578125 33.988281 68.578125 34.867188 68.578125 C 38.34375 68.578125 41.820312 68.578125 45.300781 68.578125 C 46.175781 68.578125 47.050781 68.578125 47.929688 68.578125 C 47.984375 68.578125 48.035156 68.578125 48.09375 68.578125 C 49.753906 68.578125 51.417969 68.578125 53.078125 68.578125 C 53.128906 68.578125 53.183594 68.578125 53.238281 68.578125 C 54.382812 68.578125 55.527344 68.578125 56.671875 68.578125 C 57.082031 68.578125 57.488281 68.578125 57.898438 68.578125 C 58 68.578125 58.105469 68.578125 58.207031 68.578125 C 59.730469 68.578125 61.253906 68.578125 62.78125 68.578125 C 62.855469 68.578125 62.855469 68.578125 62.933594 68.578125 C 63.007812 68.578125 63.007812 68.578125 63.082031 68.578125 C 64.765625 68.578125 66.449219 68.578125 68.128906 68.578125 C 68.3125 68.578125 68.492188 68.578125 68.671875 68.578125 C 68.738281 68.578125 68.738281 68.578125 68.804688 68.578125 C 69.507812 68.578125 70.210938 68.578125 70.914062 68.578125 C 71.605469 68.578125 72.292969 68.578125 72.984375 68.578125 C 73.355469 68.578125 73.722656 68.578125 74.09375 68.578125 C 74.429688 68.578125 74.765625 68.578125 75.101562 68.578125 C 75.222656 68.578125 75.34375 68.578125 75.464844 68.578125 C 75.628906 68.578125 75.792969 68.578125 75.953125 68.578125 C 76.003906 68.578125 76.050781 68.578125 76.097656 68.578125 C 76.359375 68.585938 76.359375 68.585938 76.5625 68.4375 C 76.574219 68.277344 76.578125 68.125 76.578125 67.964844 C 76.578125 67.917969 76.578125 67.867188 76.578125 67.816406 C 76.578125 67.648438 76.578125 67.484375 76.578125 67.316406 C 76.578125 67.199219 76.578125 67.082031 76.578125 66.960938 C 76.578125 66.640625 76.578125 66.316406 76.578125 65.992188 C 76.578125 65.65625 76.578125 65.320312 76.578125 64.980469 C 76.578125 64.414062 76.578125 63.847656 76.578125 63.28125 C 76.578125 62.625 76.578125 61.96875 76.578125 61.3125 C 76.578125 60.75 76.578125 60.1875 76.578125 59.625 C 76.578125 59.289062 76.578125 58.953125 76.578125 58.617188 C 76.578125 58.300781 76.578125 57.984375 76.578125 57.671875 C 76.578125 57.554688 76.578125 57.4375 76.578125 57.320312 C 76.578125 57.164062 76.578125 57.003906 76.578125 56.847656 C 76.578125 56.800781 76.578125 56.753906 76.578125 56.707031 C 76.585938 56.449219 76.585938 56.449219 76.4375 56.25 C 76.304688 56.230469 76.304688 56.230469 76.148438 56.234375 C 76.054688 56.234375 76.054688 56.234375 75.960938 56.234375 C 75.855469 56.234375 75.855469 56.234375 75.753906 56.234375 C 75.679688 56.234375 75.609375 56.234375 75.535156 56.234375 C 75.332031 56.234375 75.132812 56.234375 74.929688 56.234375 C 74.714844 56.234375 74.5 56.234375 74.28125 56.230469 C 73.90625 56.230469 73.53125 56.230469 73.15625 56.230469 C 72.613281 56.230469 72.070312 56.230469 71.527344 56.230469 C 70.644531 56.226562 69.761719 56.226562 68.878906 56.222656 C 68.800781 56.222656 68.800781 56.222656 68.71875 56.222656 C 68.128906 56.222656 67.539062 56.222656 66.953125 56.222656 C 66.738281 56.222656 66.523438 56.222656 66.3125 56.222656 C 66.257812 56.222656 66.207031 56.222656 66.152344 56.222656 C 65.273438 56.21875 64.394531 56.21875 63.515625 56.21875 C 62.976562 56.214844 62.433594 56.214844 61.890625 56.214844 C 61.519531 56.214844 61.148438 56.214844 60.777344 56.214844 C 60.5625 56.210938 60.347656 56.210938 60.132812 56.214844 C 59.902344 56.214844 59.667969 56.210938 59.4375 56.210938 C 59.367188 56.210938 59.300781 56.210938 59.230469 56.210938 C 58.628906 56.207031 58.128906 56.117188 57.6875 55.6875 C 57.660156 55.65625 57.632812 55.625 57.605469 55.59375 C 57.46875 55.472656 57.328125 55.40625 57.164062 55.328125 C 56.9375 55.207031 56.785156 55.121094 56.652344 54.898438 C 56.5 54.640625 56.296875 54.597656 56.023438 54.503906 C 55.863281 54.433594 55.808594 54.378906 55.710938 54.234375 C 55.496094 53.945312 55.179688 53.828125 54.859375 53.6875 C 54.550781 53.550781 54.429688 53.417969 54.25 53.125 C 54.117188 53.039062 54.117188 53.039062 53.972656 52.996094 C 53.714844 52.894531 53.554688 52.78125 53.375 52.5625 C 53.355469 52.5 53.332031 52.4375 53.3125 52.375 C 53.152344 52.292969 53.152344 52.292969 52.957031 52.222656 C 52.605469 52.082031 52.3125 51.945312 52.050781 51.664062 C 51.878906 51.503906 51.738281 51.425781 51.53125 51.320312 C 51.25 51.175781 51.121094 51.054688 50.960938 50.785156 C 50.816406 50.617188 50.617188 50.578125 50.40625 50.519531 C 50.238281 50.429688 50.203125 50.382812 50.105469 50.226562 C 49.929688 49.960938 49.726562 49.871094 49.441406 49.75 C 49.101562 49.59375 48.867188 49.46875 48.652344 49.15625 C 48.496094 48.992188 48.292969 48.941406 48.078125 48.875 C 47.910156 48.800781 47.847656 48.722656 47.75 48.5625 C 47.730469 48.5 47.707031 48.4375 47.6875 48.375 C 47.207031 48.222656 46.722656 48.230469 46.222656 48.234375 C 46.128906 48.234375 46.039062 48.234375 45.949219 48.230469 C 45.757812 48.230469 45.5625 48.230469 45.371094 48.230469 C 45.0625 48.230469 44.757812 48.230469 44.449219 48.226562 C 43.691406 48.226562 42.929688 48.222656 42.167969 48.222656 C 41.578125 48.222656 40.984375 48.21875 40.394531 48.21875 C 40.089844 48.214844 39.785156 48.214844 39.480469 48.214844 C 39.292969 48.214844 39.101562 48.214844 38.914062 48.214844 C 38.824219 48.210938 38.738281 48.210938 38.648438 48.214844 C 37.886719 48.214844 37.402344 48.132812 36.84375 47.601562 C 36.6875 47.4375 36.6875 47.4375 36.542969 47.257812 C 36.378906 47.054688 36.1875 46.898438 35.992188 46.730469 C 35.851562 46.601562 35.738281 46.460938 35.625 46.3125 C 35.457031 46.136719 35.285156 45.976562 35.097656 45.820312 C 34.945312 45.691406 34.816406 45.5625 34.691406 45.410156 C 34.519531 45.199219 34.324219 45.03125 34.117188 44.855469 C 33.957031 44.710938 33.828125 44.542969 33.6875 44.375 C 33.5625 44.261719 33.433594 44.152344 33.308594 44.046875 C 33.199219 43.949219 33.113281 43.855469 33.023438 43.742188 C 32.890625 43.582031 32.761719 43.464844 32.597656 43.339844 C 32.484375 43.234375 32.390625 43.125 32.292969 43.003906 C 32 42.667969 31.738281 42.40625 31.28125 42.347656 C 30.917969 42.34375 30.589844 42.367188 30.238281 42.4375 C 29.859375 42.507812 29.480469 42.535156 29.097656 42.5625 C 28.160156 42.582031 28.160156 42.582031 27.3125 42.902344 C 26.726562 43.308594 25.929688 43.300781 25.242188 43.359375 C 25.050781 43.375 24.863281 43.398438 24.671875 43.417969 C 24.539062 43.433594 24.410156 43.445312 24.277344 43.460938 C 24.1875 43.472656 24.1875 43.472656 24.09375 43.484375 C 23.574219 43.535156 23.089844 43.425781 22.664062 43.113281 C 22.386719 42.816406 22.21875 42.488281 22.097656 42.105469 C 22.027344 41.90625 22.011719 41.882812 21.824219 41.765625 C 21.554688 41.574219 21.46875 41.347656 21.335938 41.046875 C 21.257812 40.890625 21.199219 40.792969 21.0625 40.6875 C 21.019531 40.6875 20.980469 40.6875 20.9375 40.6875 C 20.921875 40.644531 20.90625 40.605469 20.890625 40.5625 C 20.808594 40.367188 20.714844 40.1875 20.621094 40 C 20.5625 39.875 20.5625 39.875 20.503906 39.667969 C 20.421875 39.457031 20.328125 39.40625 20.125 39.3125 C 20.082031 39.3125 20.042969 39.3125 20 39.3125 C 19.984375 39.257812 19.984375 39.257812 19.96875 39.203125 C 19.847656 38.8125 19.707031 38.511719 19.40625 38.226562 C 19.15625 37.964844 19.039062 37.664062 18.914062 37.328125 C 18.828125 37.113281 18.828125 37.113281 18.632812 37.015625 C 18.40625 36.851562 18.320312 36.6875 18.214844 36.4375 C 18.085938 36.132812 17.957031 35.945312 17.6875 35.75 C 17.605469 35.664062 17.527344 35.574219 17.453125 35.484375 C 17.386719 35.40625 17.320312 35.328125 17.25 35.25 C 17.078125 35.25 16.882812 35.457031 16.75 35.5625 Z M 16.75 35.5625 "/>
<path style=" stroke:none;fill-rule:nonzero;fill:rgb(0%,0%,0%);fill-opacity:1;" d="M 59.808594 20.550781 C 59.984375 20.550781 60.15625 20.550781 60.332031 20.546875 C 62.15625 20.542969 62.15625 20.542969 62.9375 21.0625 C 62.9375 21.105469 62.9375 21.144531 62.9375 21.1875 C 62.996094 21.203125 62.996094 21.203125 63.058594 21.222656 C 63.226562 21.273438 63.394531 21.324219 63.5625 21.375 C 63.609375 21.390625 63.65625 21.402344 63.707031 21.417969 C 63.996094 21.515625 64.148438 21.617188 64.3125 21.875 C 64.332031 21.917969 64.355469 21.957031 64.375 22 C 64.472656 22.046875 64.570312 22.09375 64.671875 22.136719 C 64.949219 22.269531 65.082031 22.390625 65.242188 22.648438 C 65.316406 22.769531 65.316406 22.769531 65.503906 22.875 C 65.785156 23.066406 65.894531 23.304688 66 23.625 C 66.058594 23.664062 66.117188 23.703125 66.179688 23.742188 C 66.507812 23.964844 66.59375 24.253906 66.710938 24.621094 C 66.828125 24.972656 66.828125 24.972656 67.039062 25.265625 C 67.492188 25.789062 67.445312 26.632812 67.449219 27.289062 C 67.449219 27.34375 67.449219 27.398438 67.449219 27.457031 C 67.449219 27.574219 67.449219 27.6875 67.449219 27.804688 C 67.449219 27.980469 67.449219 28.152344 67.453125 28.328125 C 67.457031 30.300781 67.457031 30.300781 66.941406 30.886719 C 66.757812 31.136719 66.679688 31.40625 66.585938 31.699219 C 66.46875 32.035156 66.328125 32.210938 66 32.375 C 65.953125 32.472656 65.90625 32.570312 65.863281 32.671875 C 65.730469 32.949219 65.613281 33.082031 65.355469 33.238281 C 65.234375 33.324219 65.179688 33.40625 65.105469 33.53125 C 64.941406 33.78125 64.734375 33.863281 64.460938 33.972656 C 64.296875 34.054688 64.296875 34.054688 64.203125 34.246094 C 64.011719 34.507812 63.808594 34.5625 63.507812 34.660156 C 63.125 34.789062 62.867188 34.921875 62.5625 35.1875 C 62.410156 35.257812 62.410156 35.257812 62.265625 35.296875 C 62.21875 35.3125 62.171875 35.324219 62.121094 35.339844 C 61.65625 35.429688 61.183594 35.449219 60.710938 35.449219 C 60.65625 35.449219 60.601562 35.449219 60.542969 35.449219 C 60.425781 35.449219 60.3125 35.449219 60.195312 35.449219 C 60.019531 35.449219 59.847656 35.449219 59.671875 35.453125 C 57.699219 35.457031 57.699219 35.457031 57.113281 34.941406 C 56.863281 34.757812 56.59375 34.679688 56.300781 34.585938 C 56.007812 34.484375 55.867188 34.386719 55.6875 34.125 C 55.554688 33.976562 55.441406 33.90625 55.257812 33.828125 C 55.011719 33.710938 54.910156 33.582031 54.765625 33.355469 C 54.679688 33.238281 54.59375 33.183594 54.46875 33.105469 C 54.21875 32.941406 54.136719 32.734375 54.027344 32.460938 C 53.945312 32.296875 53.945312 32.296875 53.753906 32.199219 C 53.5 32.019531 53.445312 31.84375 53.351562 31.554688 C 53.335938 31.507812 53.320312 31.464844 53.300781 31.417969 C 53.1875 31.085938 53.1875 31.085938 53.1875 30.9375 C 53.144531 30.9375 53.105469 30.9375 53.0625 30.9375 C 52.441406 30.171875 52.550781 29.117188 52.550781 28.191406 C 52.550781 28.015625 52.550781 27.84375 52.546875 27.667969 C 52.542969 25.679688 52.542969 25.679688 53.027344 25.144531 C 53.238281 24.894531 53.320312 24.605469 53.417969 24.296875 C 53.515625 24.003906 53.613281 23.867188 53.875 23.6875 C 54.023438 23.554688 54.09375 23.441406 54.171875 23.257812 C 54.289062 23.011719 54.417969 22.90625 54.648438 22.761719 C 54.769531 22.683594 54.769531 22.683594 54.875 22.496094 C 55.066406 22.214844 55.304688 22.105469 55.625 22 C 55.664062 21.941406 55.703125 21.882812 55.742188 21.820312 C 55.953125 21.511719 56.203125 21.425781 56.554688 21.324219 C 56.800781 21.246094 56.976562 21.175781 57.164062 20.996094 C 57.796875 20.390625 59 20.550781 59.808594 20.550781 Z M 58.683594 24.65625 C 58.535156 24.773438 58.390625 24.820312 58.210938 24.878906 C 57.921875 24.972656 57.757812 25.074219 57.5625 25.3125 C 57.429688 25.445312 57.304688 25.566406 57.160156 25.683594 C 56.953125 25.933594 56.875 26.195312 56.765625 26.5 C 56.675781 26.71875 56.542969 26.835938 56.375 27 C 56.144531 27.546875 56.179688 28.3125 56.324219 28.878906 C 56.398438 29.058594 56.519531 29.179688 56.65625 29.320312 C 56.765625 29.457031 56.816406 29.585938 56.878906 29.753906 C 56.984375 30.042969 57.101562 30.214844 57.3125 30.4375 C 57.363281 30.492188 57.414062 30.546875 57.46875 30.601562 C 57.71875 30.835938 57.917969 31 58.242188 31.117188 C 58.464844 31.199219 58.613281 31.28125 58.785156 31.445312 C 59.179688 31.808594 59.714844 31.773438 60.226562 31.765625 C 60.703125 31.730469 61 31.578125 61.363281 31.277344 C 61.519531 31.171875 61.667969 31.125 61.847656 31.070312 C 62.164062 30.964844 62.324219 30.828125 62.523438 30.5625 C 62.625 30.4375 62.625 30.4375 62.785156 30.320312 C 62.964844 30.164062 63.011719 30.050781 63.089844 29.828125 C 63.183594 29.578125 63.277344 29.386719 63.449219 29.183594 C 63.832031 28.707031 63.792969 27.992188 63.734375 27.410156 C 63.679688 27.085938 63.574219 26.921875 63.347656 26.6875 C 63.226562 26.53125 63.167969 26.371094 63.097656 26.183594 C 62.980469 25.878906 62.867188 25.710938 62.605469 25.519531 C 62.496094 25.433594 62.414062 25.34375 62.328125 25.234375 C 62.148438 25.015625 62 24.933594 61.734375 24.859375 C 61.515625 24.792969 61.382812 24.714844 61.21875 24.558594 C 60.816406 24.191406 60.292969 24.230469 59.773438 24.238281 C 59.300781 24.265625 59.027344 24.324219 58.683594 24.65625 Z M 58.683594 24.65625 "/>
</g>
</svg>
